:FULLY-SPECIFIED
:FORCE-ALL-JOINTS-BE-3DOF
:DEGREES
374
root 6.1655 16.367 -15.6187 5.34192 -14.4135 -2.4581
lfemur -20.3959 14.1689 -4.14066
ltibia 63.2837 0 0
lfoot -1.77357 -0.380489 0
ltoes 10.602 0 0
rfemur -37.6172 -19.2599 28.0201
rtibia 59.1779 0 0
rfoot -9.47913 0.239054 0
rtoes 17.873 0 0
lowerback 3.42359 1.64547 0.0150472
upperback 1.94343 2.14887 0.431977
thorax 0.126742 1.06632 0.292131
lowerneck -7.10178 -2.1078 2.43025
upperneck 1.79855 -3.1075 2.77649
head 1.91605 -1.45218 0.336158
lclavicle -1.20533e-014 9.02325e-015 0
lhumerus -44.9639 -21.4973 100.364
lradius 55.4164 0 0
lwrist 16.9328 0 0
lhand -10.0781 6.55291 0
lfingers 7.12502 0 0
lthumb 15.9011 35.8027 0
rclavicle -1.20533e-014 9.02325e-015 0
rhumerus -41.3791 7.10845 -91.5857
rradius 72.4419 0 0
rwrist 4.24723 0 0
rhand -29.601 -30.8259 0
rfingers 7.12502 0 0
rthumb -2.93159 -780.685 0
375
root 6.11871 16.3618 -15.4888 5.21733 -15.1278 -2.41405
lfemur -20.6184 13.9893 -4.31998
ltibia 62.804 0 0
lfoot -2.09405 0.0344933 0
ltoes 10.3626 0 0
rfemur -37.8042 -19.4541 27.9705
rtibia 59.9936 0 0
rfoot -9.08918 0.175423 0
rtoes 18.4173 0 0
lowerback 3.49674 1.73548 -0.0130207
upperback 1.9389 2.26621 0.352133
thorax 0.0849213 1.1249 0.21746
lowerneck -7.07535 -1.97047 2.57702
upperneck 1.85227 -2.93392 2.69148
head 1.92926 -1.36546 0.290643
lclavicle -1.2805e-014 8.87903e-015 0
lhumerus -44.983 -21.385 100.189
lradius 55.2962 0 0
lwrist 16.9972 0 0
lhand -10.3639 6.42799 0
lfingers 7.12502 0 0
lthumb 15.6258 35.696 0
rclavicle -1.2805e-014 8.87903e-015 0
rhumerus -41.4954 7.19217 -91.5784
rradius 72.2296 0 0
rwrist 4.34678 0 0
rhand -29.3153 -30.4365 0
rfingers 7.12502 0 0
rthumb -2.65566 -780.296 0
376
root 6.07192 16.3566 -15.359 5.09274 -15.842 -2.36999
lfemur -20.8409 13.8098 -4.4993
ltibia 62.3244 0 0
lfoot -2.41454 0.449476 0
ltoes 10.1231 0 0
rfemur -37.9913 -19.6484 27.9209
rtibia 60.8092 0 0
rfoot -8.69924 0.111793 0
rtoes 18.9617 0 0
lowerback 3.56989 1.82548 -0.0410885
upperback 1.93437 2.38355 0.272289
thorax 0.0431004 1.18349 0.142789
lowerneck -7.04892 -1.83314 2.72378
upperneck 1.90598 -2.76034 2.60648
head 1.94247 -1.27874 0.245128
lclavicle -1.35568e-014 8.73481e-015 0
lhumerus -45.0021 -21.2727 100.014
lradius 55.176 0 0
lwrist 17.0617 0 0
lhand -10.6496 6.30307 0
lfingers 7.12502 0 0
lthumb 15.3504 35.5893 0
rclavicle -1.35568e-014 8.73481e-015 0
rhumerus -41.6117 7.27589 -91.5711
rradius 72.0173 0 0
rwrist 4.44633 0 0
rhand -29.0296 -30.0471 0
rfingers 7.12502 0 0
rthumb -2.37974 -779.907 0
377
root 6.02513 16.3515 -15.2292 4.96815 -16.5563 -2.32594
lfemur -21.0634 13.6302 -4.67863
ltibia 61.8447 0 0
lfoot -2.73502 0.864458 0
ltoes 9.88365 0 0
rfemur -38.1783 -19.8426 27.8713
rtibia 61.6249 0 0
rfoot -8.30929 0.0481625 0
rtoes 19.5061 0 0
lowerback 3.64304 1.91549 -0.0691564
upperback 1.92984 2.50088 0.192445
thorax 0.00127949 1.24207 0.0681176
lowerneck -7.02249 -1.69581 2.87054
upperneck 1.9597 -2.58676 2.52148
head 1.95569 -1.19202 0.199613
lclavicle -1.43086e-014 8.5906e-015 0
lhumerus -45.0211 -21.1605 99.8381
lradius 55.0559 0 0
lwrist 17.1261 0 0
lhand -10.9354 6.17815 0
lfingers 7.12502 0 0
lthumb 15.075 35.4826 0
rclavicle -1.43086e-014 8.5906e-015 0
rhumerus -41.728 7.35961 -91.5637
rradius 71.8049 0 0
rwrist 4.54588 0 0
rhand -28.7438 -29.6577 0
rfingers 7.12502 0 0
rthumb -2.10381 -779.518 0
378
root 5.97834 16.3463 -15.0994 4.84356 -17.2706 -2.28189
lfemur -21.286 13.4506 -4.85795
ltibia 61.365 0 0
lfoot -3.0555 1.27944 0
ltoes 9.6442 0 0
rfemur -38.3653 -20.0368 27.8217
rtibia 62.4406 0 0
rfoot -7.91934 -0.0154678 0
rtoes 20.0504 0 0
lowerback 3.71618 2.00549 -0.0972243
upperback 1.92531 2.61822 0.112602
thorax -0.0405414 1.30065 -0.00655353
lowerneck -6.99606 -1.55847 3.0173
upperneck 2.01342 -2.41318 2.43647
head 1.9689 -1.1053 0.154098
lclavicle -1.50604e-014 8.44638e-015 0
lhumerus -45.0402 -21.0482 99.6627
lradius 54.9357 0 0
lwrist 17.1906 0 0
lhand -11.2211 6.05323 0
lfingers 7.12502 0 0
lthumb 14.7996 35.3759 0
rclavicle -1.50604e-014 8.44638e-015 0
rhumerus -41.8443 7.44333 -91.5564
rradius 71.5926 0 0
rwrist 4.64543 0 0
rhand -28.4581 -29.2682 0
rfingers 7.12502 0 0
rthumb -1.82788 -779.129 0
379
root 5.93155 16.3412 -14.9695 4.71897 -17.9848 -2.23783
lfemur -21.5085 13.271 -5.03728
ltibia 60.8853 0 0
lfoot -3.37599 1.69442 0
ltoes 9.40475 0 0
rfemur -38.5524 -20.2311 27.7721
rtibia 63.2563 0 0
rfoot -7.52939 -0.0790982 0
rtoes 20.5948 0 0
lowerback 3.78933 2.09549 -0.125292
upperback 1.92078 2.73555 0.0327576
thorax -0.0823624 1.35923 -0.0812247
lowerneck -6.96963 -1.42114 3.16407
upperneck 2.06714 -2.2396 2.35147
head 1.98211 -1.01858 0.108583
lclavicle -1.58121e-014 8.30217e-015 0
lhumerus -45.0593 -20.9359 99.4873
lradius 54.8156 0 0
lwrist 17.2551 0 0
lhand -11.5069 5.92831 0
lfingers 7.12502 0 0
lthumb 14.5243 35.2692 0
rclavicle -1.58121e-014 8.30217e-015 0
rhumerus -41.9606 7.52705 -91.5491
rradius 71.3803 0 0
rwrist 4.74498 0 0
rhand -28.1723 -28.8788 0
rfingers 7.12502 0 0
rthumb -1.55195 -778.74 0
380
root 5.88476 16.336 -14.8397 4.59437 -18.6991 -2.19378
lfemur -21.731 13.0914 -5.2166
ltibia 60.4056 0 0
lfoot -3.69647 2.10941 0
ltoes 9.1653 0 0
rfemur -38.7394 -20.4253 27.7225
rtibia 64.0719 0 0
rfoot -7.13944 -0.142729 0
rtoes 21.1392 0 0
lowerback 3.86248 2.1855 -0.15336
upperback 1.91625 2.85289 -0.0470863
thorax -0.124183 1.41781 -0.155896
lowerneck -6.9432 -1.28381 3.31083
upperneck 2.12085 -2.06602 2.26647
head 1.99533 -0.931865 0.0630678
lclavicle -1.65639e-014 8.15795e-015 0
lhumerus -45.0783 -20.8237 99.3119
lradius 54.6954 0 0
lwrist 17.3195 0 0
lhand -11.7927 5.80339 0
lfingers 7.12502 0 0
lthumb 14.2489 35.1625 0
rclavicle -1.65639e-014 8.15795e-015 0
rhumerus -42.0769 7.61077 -91.5417
rradius 71.168 0 0
rwrist 4.84453 0 0
rhand -27.8866 -28.4894 0
rfingers 7.12502 0 0
rthumb -1.27603 -778.351 0
381
root 5.83797 16.3309 -14.7099 4.46978 -19.4133 -2.14973
lfemur -21.9535 12.9118 -5.39592
ltibia 59.926 0 0
lfoot -4.01696 2.52439 0
ltoes 8.92585 0 0
rfemur -38.9264 -20.6196 27.6729
rtibia 64.8876 0 0
rfoot -6.7495 -0.206359 0
rtoes 21.6836 0 0
lowerback 3.93563 2.2755 -0.181428
upperback 1.91173 2.97022 -0.12693
thorax -0.166004 1.4764 -0.230567
lowerneck -6.91677 -1.14648 3.45759
upperneck 2.17457 -1.89244 2.18147
head 2.00854 -0.845146 0.0175527
lclavicle -1.73157e-014 8.01373e-015 0
lhumerus -45.0974 -20.7114 99.1365
lradius 54.5753 0 0
lwrist 17.384 0 0
lhand -12.0784 5.67847 0
lfingers 7.12502 0 0
lthumb 13.9735 35.0558 0
rclavicle -1.73157e-014 8.01373e-015 0
rhumerus -42.1932 7.69448 -91.5344
rradius 70.9557 0 0
rwrist 4.94408 0 0
rhand -27.6009 -28.1 0
rfingers 7.12502 0 0
rthumb -1.0001 -777.962 0
382
root 5.79118 16.3257 -14.58 4.34519 -20.1276 -2.10567
lfemur -22.176 12.7322 -5.57525
ltibia 59.4463 0 0
lfoot -4.33744 2.93937 0
ltoes 8.6864 0 0
rfemur -39.1135 -20.8138 27.6233
rtibia 65.7033 0 0
rfoot -6.35955 -0.269989 0
rtoes 22.2279 0 0
lowerback 4.00878 2.36551 -0.209496
upperback 1.9072 3.08756 -0.206774
thorax -0.207825 1.53498 -0.305238
lowerneck -6.89034 -1.00915 3.60435
upperneck 2.22829 -1.71886 2.09646
head 2.02175 -0.758428 -0.0279624
lclavicle -1.80675e-014 7.86952e-015 0
lhumerus -45.1165 -20.5991 98.9611
lradius 54.4551 0 0
lwrist 17.4484 0 0
lhand -12.3642 5.55355 0
lfingers 7.12502 0 0
lthumb 13.6981 34.9491 0
rclavicle -1.80675e-014 7.86952e-015 0
rhumerus -42.3095 7.7782 -91.5271
rradius 70.7434 0 0
rwrist 5.04363 0 0
rhand -27.3151 -27.7106 0
rfingers 7.12502 0 0
rthumb -0.724171 -777.573 0
383
root 5.74439 16.3206 -14.4502 4.2206 -20.8418 -2.06162
lfemur -22.3985 12.5526 -5.75457
ltibia 58.9666 0 0
lfoot -4.65792 3.35435 0
ltoes 8.44695 0 0
rfemur -39.3005 -21.008 27.5737
rtibia 66.519 0 0
rfoot -5.9696 -0.33362 0
rtoes 22.7723 0 0
lowerback 4.08193 2.45551 -0.237564
upperback 1.90267 3.20489 -0.286618
thorax -0.249646 1.59356 -0.379909
lowerneck -6.86391 -0.87182 3.75112
upperneck 2.282 -1.54528 2.01146
head 2.03497 -0.671709 -0.0734775
lclavicle -1.88192e-014 7.7253e-015 0
lhumerus -45.1355 -20.4869 98.7857
lradius 54.335 0 0
lwrist 17.5129 0 0
lhand -12.6499 5.42863 0
lfingers 7.12502 0 0
lthumb 13.4228 34.8424 0
rclavicle -1.88192e-014 7.7253e-015 0
rhumerus -42.4258 7.86192 -91.5197
rradius 70.5311 0 0
rwrist 5.14318 0 0
rhand -27.0294 -27.3212 0
rfingers 7.12502 0 0
rthumb -0.448244 -777.184 0
